<?xml version="1.0" encoding="utf-8"?>
<!-- Generator: Adobe Illustrator 21.1.0, SVG Export Plug-In . SVG Version: 6.00 Build 0)  -->
<svg version="1.1" id="Layer_1" xmlns="http://www.w3.org/2000/svg" xmlns:xlink="http://www.w3.org/1999/xlink" x="0px" y="0px"
	 width="150px" height="150px" viewBox="0 0 150 150" style="enable-background:new 0 0 150 150;" xml:space="preserve">
<style type="text/css">
	.st0{fill:none;stroke:#4995D1;stroke-miterlimit:10;}
</style>
<polygon class="st0" points="-1,-1 36.6,-1 30.6,30 "/>
<polygon class="st0" points="-1,43.5 30.6,30 -1,-1 "/>
<polygon class="st0" points="73.2,-1 30.6,30 36.6,-1 "/>
<polygon class="st0" points="53.4,47.1 73.2,-1 30.6,30 "/>
<polygon class="st0" points="-1,43.5 33.9,58.2 30.6,30 "/>
<polygon class="st0" points="-1,82.5 33.9,58.2 -1,43.5 "/>
<polygon class="st0" points="27.7,93 -1,82.5 33.9,58.2 "/>
<polygon class="st0" points="-1,120.5 27.7,93 -1,82.5 "/>
<polygon class="st0" points="60.8,68.8 87.2,81.4 71.6,96.4 "/>
<polygon class="st0" points="109.5,-1 85,23.1 73.2,-1 "/>
<polygon class="st0" points="73.2,16 66,58.2 91,51.8 "/>
<polygon class="st0" points="-1,120.5 33.9,123.4 21.9,149 "/>
<polygon class="st0" points="33.9,123.4 66,130.5 51.9,96.4 "/>
<polygon class="st0" points="109.5,-1 149,-1 139.1,21.3 "/>
<polygon class="st0" points="122.8,33.1 114.8,60.8 135.2,63.4 "/>
<polygon class="st0" points="49.8,71.3 33.9,58.2 27.7,93 "/>
</svg>
