<?xml version="1.0" encoding="utf-8"?>
<!-- Generator: Adobe Illustrator 21.1.0, SVG Export Plug-In . SVG Version: 6.00 Build 0)  -->
<svg version="1.1" id="Layer_1" xmlns="http://www.w3.org/2000/svg" xmlns:xlink="http://www.w3.org/1999/xlink" x="0px" y="0px"
	 width="150px" height="150px" viewBox="0 0 150 150" style="enable-background:new 0 0 150 150;" xml:space="preserve">
<style type="text/css">
	.st0{fill:none;stroke:#4995D1;stroke-miterlimit:10;}
</style>
<polygon class="st0" points="151,151 113.4,151 118.4,126 "/>
<polygon class="st0" points="151,106.5 118.4,126 151,151 "/>
<polygon class="st0" points="76.8,151 118.4,126 113.4,151 "/>
<polygon class="st0" points="96.6,102.9 76.8,151 118.4,126 "/>
<polygon class="st0" points="151,106.5 122.1,91.8 118.4,126 "/>
<polygon class="st0" points="151,67.5 122.1,91.8 151,106.5 "/>
<polygon class="st0" points="122.3,57 151,67.5 122.1,91.8 "/>
<polygon class="st0" points="151,31.5 122.3,57 151,67.5 "/>
<polygon class="st0" points="35.5,151 58,126.9 76.8,151 "/>
<polygon class="st0" points="77.8,117 85,76.8 60,86.2 "/>
<polygon class="st0" points="151,31.5 116.1,26.6 132.1,1 "/>
<polygon class="st0" points="116.1,26.6 84,19.5 98.1,53.6 "/>
<polygon class="st0" points="35.5,151 1,151 20.9,128.7 "/>
<polygon class="st0" points="36.3,139.3 54.3,111.6 33.9,108.9 "/>
<polygon class="st0" points="96.6,102.9 122.1,91.8 100.1,67.5 "/>
</svg>
