<svg version="1.1" id="pyconar2021-logo" xmlns="http://www.w3.org/2000/svg" viewBox="0 0 600 300" >
	 <style type="text/css">
	.st0{fill:#1B2E59;}
	.st1{fill:#4A95D1;}
	.st2{fill:url(#logo-grd);}
	.st3{fill:url(#SVGID_1_);}
	.st4{fill:url(#SVGID_2_);}
	.st5{fill:url(#SVGID_3_);}
</style>
	
	<defs>  
		<linearGradient id="logo-grd"  gradientTransform="rotate(90)">
			<stop  offset="0" style="stop-color:#D9ECF9"/>
			<stop  offset="0.10" style="stop-color:#FFFFFF"/>
			<stop  offset="0.25" style="stop-color:#D9ECF9"/>
			<stop  offset="0.37" style="stop-color:#4A95D1">
				<animate attributeName="offset" values="0.37;0.39;0.37" dur=".8s" repeatCount="indefinite"></animate>
			</stop>
			<stop  offset="0.38" style="stop-color:#1B2E59">
				<animate attributeName="offset" values="0.38;0.40;0.38" dur=".8s" repeatCount="indefinite"></animate>
			</stop>
			<stop  offset="0.62" style="stop-color:#397FC1"/>
			<stop  offset="0.89" style="stop-color:#FFFFFF"/>
			<stop  offset="1" style="stop-color:#D9ECF9"/>
		</linearGradient>		

			<linearGradient id="SVGID_1_" gradientUnits="userSpaceOnUse" x1="300.2" y1="39.5781" x2="300.2" y2="35.6">
			<stop  offset="0" style="stop-color:#4A95D1"/>
			<stop  offset="0.35" style="stop-color:#1B2E59"/>
			<stop  offset="0.65" style="stop-color:#1B2E59"/>
			<stop  offset="1" style="stop-color:#fff"/>
		</linearGradient>
		<linearGradient id="SVGID_2_" gradientUnits="userSpaceOnUse" x1="369.5" y1="159.5298" x2="372.9" y2="161.5">
			<stop  offset="0" style="stop-color:#4A95D1"/>
			<stop  offset="0.35" style="stop-color:#1B2E59"/>
			<stop  offset="0.65" style="stop-color:#1B2E59"/>
			<stop  offset="1" style="stop-color:#fff"/>
		</linearGradient>
		<linearGradient id="SVGID_3_" gradientUnits="userSpaceOnUse" x1="227.5" y1="161.5" x2="231" y2="159.5">
			<stop  offset="0" style="stop-color:#fff"/>
			<stop  offset="0.35" style="stop-color:#1B2E59"/>
			<stop  offset="0.65" style="stop-color:#1B2E59"/>
			<stop  offset="1" style="stop-color:#4A95D1"/>
		</linearGradient>
    </defs>

	<g style="filter: drop-shadow(0px 0px 6px #fff);">
		<polygon class="st3" points="154,35.1 161.6,40.1 438.9,40.1 446.6,35.1 		"/>
		<polygon class="st4" points="437.9,40.1 299.4,279.9 300.3,288.5 446.6,35.1 		"/>
		<polygon class="st5" points="300.3,278.5 162.6,40.1 154,35.1 300.3,288.5 		"/>
	</g>
	
	<g>
		<path class="st0" d="M240,64.6h-47.9l25.1-26c1.4-1.5,2.6-2.9,3.6-4.2c1-1.2,1.7-2.3,2.2-3.5c0.5-1.1,0.7-2.3,0.7-3.6
			c0-0.7-0.1-1.4-0.4-2.1c-0.3-0.7-0.6-1.3-1.1-1.8c-0.5-0.5-1.1-1-1.9-1.3c-0.8-0.3-1.7-0.5-2.8-0.5c-1.4,0-2.6,0.3-3.7,1
			c-1.1,0.7-1.9,1.7-2.4,2.9c-0.6,1.3-0.9,2.9-0.9,4.6v1H196v-1c0-3.9,0.8-7.5,2.4-10.7c1.6-3.3,4.1-5.9,7.4-7.9
			c3.3-1.9,7.3-2.9,12-2.9c3.4,0,6.4,0.5,9,1.5c2.6,1,4.8,2.4,6.6,4.1c1.8,1.7,3.1,3.6,4,5.7c0.9,2.1,1.4,4.2,1.4,6.3
			c0,3-0.8,5.8-2.2,8.4c-1.5,2.5-3.4,4.7-5.7,6.7l-10.3,9.2H240V64.6z M196.8,62.6H238v-9.6h-22.7l14.2-12.7c2.2-1.9,4-4,5.3-6.3
			c1.3-2.2,2-4.7,2-7.3c0-1.9-0.4-3.7-1.2-5.5c-0.8-1.8-2-3.5-3.6-5.1c-1.6-1.5-3.6-2.8-5.9-3.7c-2.4-0.9-5.2-1.4-8.3-1.4
			c-4.3,0-8,0.9-11,2.6c-3,1.7-5.2,4.1-6.6,7c-1.3,2.7-2.1,5.6-2.2,8.9h10.5c0.1-1.6,0.4-3.1,1-4.4c0.7-1.6,1.8-2.9,3.2-3.8
			c1.4-0.9,3-1.4,4.8-1.4c1.3,0,2.5,0.2,3.5,0.6c1,0.4,1.9,1,2.6,1.7c0.7,0.7,1.2,1.6,1.6,2.5c0.3,0.9,0.5,1.8,0.5,2.8
			c0,1.5-0.3,3-0.9,4.3c-0.6,1.3-1.4,2.6-2.5,4c-1,1.3-2.3,2.7-3.7,4.2l0,0L196.8,62.6z"/>
		<path class="st0" d="M274.7,65.6c-4.5,0-8.5-1.2-12-3.4c-3.5-2.3-6.2-5.6-8.1-9.8c-1.9-4.2-2.8-9.2-2.8-15.1
			c0-5.8,1-10.9,2.8-15.1c1.9-4.2,4.6-7.5,8.1-9.8c3.5-2.3,7.5-3.4,12-3.4c4.6,0,8.7,1.2,12.2,3.4c3.4,2.3,6.1,5.6,8,9.8
			c1.8,4.2,2.8,9.2,2.8,15.1c0,5.8-0.9,10.9-2.8,15.1c-1.8,4.2-4.5,7.5-8,9.8C283.4,64.4,279.3,65.6,274.7,65.6z M274.7,11
			c-4.1,0-7.7,1-10.9,3.1c-3.1,2.1-5.6,5.1-7.3,8.9v0c-1.8,3.9-2.7,8.7-2.7,14.2c0,5.5,0.9,10.3,2.7,14.2c1.7,3.9,4.2,6.9,7.3,8.9
			c3.1,2.1,6.8,3.1,10.9,3.1c4.2,0,8-1,11.1-3.1c3.1-2.1,5.5-5.1,7.2-8.9c1.7-3.9,2.6-8.7,2.6-14.3c0-5.5-0.9-10.3-2.6-14.3
			c-1.7-3.9-4.1-6.9-7.2-8.9C282.6,12.1,278.9,11,274.7,11z M274.7,54.7c-1.6,0-3.2-0.4-4.5-1.3c-1.3-0.9-2.4-2.1-3.4-3.6
			c-0.9-1.5-1.6-3.4-2.1-5.5c-0.5-2.1-0.7-4.4-0.7-6.9s0.2-4.9,0.7-6.9c0.5-2.1,1.2-4,2.1-5.5c0.9-1.5,2.1-2.8,3.4-3.6
			c1.3-0.9,2.9-1.3,4.5-1.3c1.6,0,3.2,0.4,4.5,1.3c1.3,0.9,2.4,2.1,3.4,3.6c0.9,1.5,1.6,3.4,2.1,5.5c0.5,2.1,0.7,4.4,0.7,6.9
			c0,2.5-0.2,4.9-0.7,6.9c-0.5,2.1-1.2,4-2.1,5.5c-0.9,1.6-2.1,2.8-3.4,3.6C277.8,54.2,276.3,54.7,274.7,54.7z M274.7,21.9
			c-1.3,0-2.4,0.3-3.4,1c-1,0.7-2,1.7-2.7,3c-0.8,1.3-1.4,3-1.8,4.9c-0.4,1.9-0.7,4.1-0.7,6.5c0,2.4,0.2,4.6,0.7,6.5l0,0
			c0.4,1.9,1,3.6,1.8,4.9c0.8,1.3,1.7,2.3,2.7,3c1,0.7,2.1,1,3.4,1c1.3,0,2.4-0.3,3.4-1c1-0.7,2-1.7,2.7-3c0.8-1.3,1.4-3,1.8-4.9
			c0.4-1.9,0.7-4.1,0.7-6.5c0-2.4-0.2-4.6-0.7-6.5c-0.4-1.9-1-3.6-1.8-4.9c-0.8-1.3-1.7-2.3-2.7-3C277,22.2,275.9,21.9,274.7,21.9z"
			/>
		<path class="st0" d="M354.1,64.6h-47.9l25.1-26c1.4-1.5,2.6-2.9,3.6-4.2c1-1.2,1.7-2.3,2.2-3.5c0.5-1.1,0.7-2.3,0.7-3.6
			c0-0.7-0.1-1.4-0.4-2.1c-0.3-0.7-0.6-1.3-1.1-1.8c-0.5-0.5-1.1-1-1.9-1.3c-0.8-0.3-1.7-0.5-2.8-0.5c-1.4,0-2.6,0.4-3.7,1
			c-1.1,0.7-1.9,1.7-2.4,2.9c-0.6,1.3-0.9,2.9-0.9,4.6v1h-14.5v-1c0-3.9,0.8-7.5,2.4-10.7c1.6-3.3,4.1-5.9,7.4-7.9
			c3.3-1.9,7.3-2.9,12-2.9c3.4,0,6.4,0.5,9,1.5c2.6,1,4.8,2.4,6.6,4.1c1.8,1.7,3.1,3.6,4,5.7c0.9,2.1,1.4,4.2,1.4,6.3
			c0,3-0.8,5.8-2.2,8.4c-1.5,2.5-3.4,4.7-5.7,6.8l-10.3,9.2h19.4V64.6z M310.9,62.6h41.2v-9.6h-22.7l14.2-12.7
			c2.2-1.9,3.9-4,5.3-6.3c1.3-2.2,2-4.7,2-7.3c0-1.9-0.4-3.7-1.2-5.5c-0.8-1.8-2-3.5-3.6-5.1c-1.6-1.5-3.6-2.8-5.9-3.7
			c-2.4-0.9-5.2-1.4-8.3-1.4c-4.3,0-8,0.9-11,2.6c-2.9,1.7-5.2,4.1-6.6,7c-1.3,2.7-2.1,5.7-2.2,8.9h10.5c0.1-1.6,0.4-3.1,1-4.4
			c0.7-1.6,1.8-2.9,3.2-3.8c1.4-0.9,3-1.4,4.8-1.4c1.3,0,2.5,0.2,3.5,0.6c1,0.4,1.9,1,2.6,1.7c0.7,0.7,1.2,1.6,1.6,2.5
			c0.3,0.9,0.5,1.8,0.5,2.8c0,1.5-0.3,3-0.9,4.3c-0.6,1.3-1.4,2.6-2.5,4c-1,1.2-2.3,2.7-3.7,4.2l0,0L310.9,62.6z"/>
		<path class="st0" d="M395.2,64.6H381V24.2l-13,3.2V14.3l27.3-5.5V64.6z M383,62.6h10.3V11.2L370,15.9v9l13-3.2V62.6z"/>
	</g>
	<g>
		<path class="st1" d="M71,84.5C62.7,78.8,50.7,76,35.3,76c-4.5,0-9.4,0.2-14.7,0.5c-5.4,0.4-10.4,1-14.8,2.1L3.8,79v105.6h23.6
			v-36.1h6.8c7.6,0,14.5-0.7,20.5-2c6.1-1.3,11.4-3.5,15.6-6.4c4.4-2.9,7.8-6.8,10.1-11.5C82.8,124,84,118.4,84,112
			C84,99.7,79.6,90.4,71,84.5z M59.5,111.9c0,6-1.9,10-5.9,12.1c-4.5,2.3-11,3.5-19.6,3.5h-6.5V97.3c2.6-0.2,5.7-0.3,9.2-0.3
			c3.4,0,6.6,0.3,9.6,0.8c2.8,0.5,5.3,1.3,7.3,2.5c1.9,1.1,3.3,2.5,4.4,4.4C58.9,106.6,59.5,109,59.5,111.9z"/>
		<path class="st1" d="M141.2,104c-2.2,9.2-4.8,18.8-7.5,28.7c-2.1,7.6-4.3,14.9-6.7,21.8c-1-2.5-2.1-5.1-3.1-7.7
			c-1.8-4.8-3.6-9.8-5.3-14.8c-1.7-4.9-3.2-9.9-4.7-14.6c-1.4-4.7-2.6-9.2-3.6-13.3l-0.5-1.9H85.6l0.9,3.2
			c4.1,14.4,8.8,28.3,14,41.1c5,12.4,10.4,24.1,15.8,34.7c-1.7,3.7-3.6,6.5-5.8,8.3c-2.2,1.8-5.3,2.7-9.3,2.7
			c-3.1,0-6.4-0.6-9.7-1.9l-2.7-1l-4.3,19.1l1.8,0.9c1.6,0.8,3.8,1.5,6.7,2.1c2.9,0.6,5.8,0.9,8.8,0.9c4.4,0,8.3-0.5,11.7-1.5
			c3.5-1,6.6-2.7,9.4-5c2.8-2.2,5.3-5.1,7.5-8.4c2.1-3.3,4.3-7.2,6.3-11.8c10.5-23.9,19.9-50.9,27.9-80.3l0.9-3.2h-23.7L141.2,104z"
			/>
		<path class="st1" d="M248.4,159.7c-2.1,1.1-5.2,2.3-9.2,3.6c-3.9,1.2-9,1.9-15.4,1.9c-5.1,0-9.6-0.8-13.2-2.5
			c-3.6-1.6-6.5-4-8.8-7c-2.3-3-4.1-6.7-5.3-10.9c-1.2-4.3-1.8-9.1-1.8-14.3c0-5.8,0.8-11,2.2-15.3c1.5-4.3,3.5-7.9,6.1-10.7
			c2.5-2.8,5.6-4.9,9.1-6.2c3.5-1.4,7.4-2.1,11.5-2.1c4.9,0,9.4,0.6,13.6,1.9c4.2,1.3,7.4,2.6,9.5,3.9l2.6,1.6l7.2-20.1l-1.8-1
			c-0.7-0.4-1.9-1.1-3.6-2c-1.8-1-4-1.8-6.8-2.7c-2.6-0.8-5.8-1.6-9.3-2.2c-3.6-0.7-7.6-1-12-1c-7.3,0-14.2,1.3-20.6,3.7
			c-6.4,2.5-12.1,6.2-16.9,11c-4.8,4.8-8.5,10.7-11.3,17.6c-2.7,6.9-4.1,14.8-4.1,23.7c0,8.8,1.2,16.8,3.5,23.6
			c2.4,6.9,5.8,12.9,10.3,17.7c4.5,4.8,10,8.6,16.5,11.1c6.4,2.5,13.6,3.7,21.6,3.7c4,0,7.9-0.2,11.4-0.7c3.5-0.5,6.8-1.1,9.6-1.8
			c2.9-0.8,5.4-1.6,7.4-2.4c2.2-0.9,3.9-1.7,5.3-2.6l1.6-1.1l-6.5-19.8L248.4,159.7z"/>
		<path class="st1" d="M329.7,112.1c-3.5-3.8-7.7-6.8-12.6-8.8c-4.9-2-10.3-3.1-16-3.1c-5.7,0-11.1,1-15.9,3.1
			c-4.8,2.1-9.1,5-12.6,8.8c-3.5,3.8-6.3,8.4-8.2,13.6c-1.9,5.2-2.9,11.1-2.9,17.5c0,6.4,1,12.3,2.9,17.6c1.9,5.3,4.7,9.9,8.1,13.7
			c3.5,3.8,7.7,6.8,12.5,8.9c4.8,2.1,10.2,3.2,16.1,3.2c5.8,0,11.3-1.1,16.2-3.2c4.9-2.1,9.1-5.1,12.6-8.9c3.5-3.8,6.2-8.4,8.1-13.7
			c1.9-5.3,2.8-11.2,2.8-17.6c0-6.4-1-12.3-2.9-17.5C335.9,120.5,333.2,115.9,329.7,112.1z M317.4,143.3c0,7.2-1.5,12.9-4.5,17
			c-2.8,3.9-6.7,5.8-11.8,5.8c-5.1,0-9-1.9-11.8-5.8c-3-4.1-4.5-9.8-4.5-17c0-7.1,1.5-12.8,4.5-16.8c2.8-3.8,6.7-5.7,11.8-5.7
			c5.1,0,9,1.9,11.8,5.7C315.9,130.5,317.4,136.1,317.4,143.3z"/>
		<path class="st1" d="M416.4,111.3c-2.8-3.4-6.5-6.1-11.1-8c-4.5-1.8-10.2-2.8-16.8-2.8c-6.8,0-13.1,0.5-18.7,1.4
			c-5.6,0.9-10.2,1.9-13.8,2.9l-1.8,0.5v79.3h22.9v-62.8c0.9-0.1,2-0.3,3.3-0.4c2.4-0.3,4.6-0.4,6.8-0.4c2.7,0,5,0.4,6.8,1.1
			c1.7,0.7,2.9,1.7,3.9,3.1c1,1.5,1.8,3.6,2.3,6.2c0.5,2.8,0.8,6.2,0.8,10.1v43.2h22.9v-46c0-5.4-0.5-10.4-1.6-15
			C421.1,118.8,419.2,114.7,416.4,111.3z"/>
		<path class="st1" d="M523.8,150.8c-3.5-9.3-7-18.2-10.2-26.4c-3.3-8.3-6.6-16.3-9.9-23.7c-3.2-7.4-6.6-14.9-10.1-22.3l-0.7-1.4
			h-21l-0.7,1.4c-3.5,7.3-6.9,14.8-10.1,22.3c-3.2,7.5-6.6,15.4-9.9,23.7c-3.3,8.2-6.7,17.1-10.1,26.4c-3.5,9.3-7.1,19.5-11,30.4
			l-1.2,3.3h24.7l0.6-1.7c1.4-3.9,2.8-7.9,4.2-11.9c1.2-3.5,2.5-7,3.7-10.6H502c1.2,3.6,2.5,7.1,3.8,10.5c1.5,3.9,2.9,7.9,4.3,11.9
			l0.6,1.7H536l-1.2-3.3C531,170.3,527.3,160.1,523.8,150.8z M495.4,140.3h-26.6c2.7-7.5,5.4-14.5,7.9-21c1.9-5,3.8-9.6,5.4-13.6
			c1.6,3.9,3.4,8.4,5.4,13.4C490,125.7,492.7,132.8,495.4,140.3z"/>
		<path class="st1" d="M592.4,103.3c-1-0.3-2.2-0.7-3.8-1c-1.5-0.4-3.1-0.7-4.8-0.9c-1.6-0.3-3.3-0.5-4.9-0.6
			c-1.6-0.2-3.1-0.2-4.4-0.2c-6.5,0-12.4,0.6-17.8,1.8c-5.3,1.2-9.7,2.4-13.3,3.7l-1.6,0.6v77.9h22.9V122c0.6-0.1,1.5-0.3,2.6-0.5
			c2.1-0.4,4-0.6,5.9-0.6c3.3,0,6.2,0.3,8.6,0.8c2.5,0.5,4.5,1,5.9,1.5l2.7,0.9l4.1-20L592.4,103.3z"/>
	</g>
	<g>
		<path class="st2" d="M35.3,77c14.9,0,26.3,2.7,34.3,8.1c7.9,5.4,11.9,13.9,11.9,25.4c0,6-1.1,11.2-3.2,15.5
			c-2.1,4.3-5.2,7.8-9.2,10.5c-4,2.7-9,4.7-14.8,6c-5.8,1.3-12.5,1.9-20,1.9H25v36.1H6.3V79.5c4.3-1,9.1-1.7,14.4-2
			C26,77.1,30.9,77,35.3,77z M36.7,93.1c-4.7,0-8.6,0.1-11.7,0.4v34.9h9c9,0,15.9-1.3,20.7-3.8c4.8-2.5,7.2-7.3,7.2-14.3
			c0-3.4-0.6-6.2-1.9-8.4c-1.3-2.3-3.1-4-5.3-5.3c-2.3-1.3-5-2.2-8.1-2.7C43.6,93.4,40.2,93.1,36.7,93.1z"/>
		<path class="st2" d="M162.1,103.2c-8,29.4-17.2,56-27.8,79.9c-2,4.4-4,8.2-6.1,11.4c-2.1,3.2-4.4,5.8-7,7.8
			c-2.6,2.1-5.4,3.6-8.6,4.5c-3.2,0.9-6.8,1.4-11,1.4c-2.8,0-5.5-0.3-8.2-0.9c-2.7-0.6-4.8-1.2-6.1-1.9l3.3-14.4
			c3.6,1.4,7.1,2.1,10.6,2.1c4.7,0,8.3-1.1,10.9-3.3c2.6-2.2,4.9-5.6,6.9-10.3c-5.6-10.8-11.1-22.7-16.3-35.5
			c-5.2-12.8-9.8-26.4-13.9-40.8H108c1,4.1,2.2,8.6,3.6,13.5c1.4,4.8,3,9.7,4.7,14.7c1.7,5,3.5,9.9,5.3,14.9
			c1.9,4.9,3.8,9.5,5.6,13.8c3.1-8.8,6.1-18.1,8.8-28c2.7-9.9,5.3-19.5,7.5-28.8H162.1z"/>
		<path class="st2" d="M222.2,182.8c-7.7,0-14.6-1.2-20.7-3.6c-6.1-2.4-11.3-5.8-15.5-10.4c-4.2-4.6-7.5-10.2-9.8-16.8
			c-2.3-6.6-3.4-14.2-3.4-22.8s1.3-16.2,3.9-22.8c2.6-6.6,6.2-12.2,10.7-16.8c4.5-4.6,9.9-8.1,16-10.4c6.1-2.4,12.7-3.6,19.7-3.6
			c4.2,0,8.1,0.3,11.5,1c3.5,0.6,6.5,1.4,9,2.1c2.6,0.8,4.7,1.6,6.4,2.5c1.7,0.9,2.9,1.5,3.6,1.9l-5.5,15.2
			c-2.4-1.5-5.7-2.9-10.1-4.2c-4.4-1.3-9.2-2-14.3-2c-4.4,0-8.6,0.8-12.4,2.3c-3.8,1.5-7.2,3.8-10,6.9c-2.8,3.1-5,6.9-6.6,11.5
			c-1.6,4.6-2.4,10-2.4,16.1c0,5.4,0.6,10.4,1.8,14.9c1.2,4.5,3.1,8.5,5.7,11.8c2.6,3.3,5.8,5.9,9.8,7.7c3.9,1.8,8.7,2.7,14.2,2.7
			c6.6,0,12-0.7,16.1-2c4.1-1.3,7.3-2.6,9.6-3.8l5,15.2c-1.2,0.8-2.8,1.6-4.8,2.4c-2,0.8-4.4,1.6-7.2,2.3c-2.8,0.7-5.9,1.3-9.3,1.8
			C229.9,182.5,226.2,182.8,222.2,182.8z"/>
		<path class="st2" d="M338.2,141.8c0,6.1-0.9,11.7-2.7,16.7c-1.8,5-4.3,9.3-7.5,12.9c-3.3,3.6-7.2,6.3-11.8,8.3
			c-4.6,2-9.6,3-15.2,3c-5.5,0-10.6-1-15.1-3c-4.5-2-8.4-4.7-11.7-8.3c-3.3-3.6-5.8-7.8-7.6-12.9c-1.8-5-2.7-10.6-2.7-16.7
			c0-6.1,0.9-11.7,2.7-16.6c1.8-5,4.4-9.2,7.7-12.8c3.3-3.6,7.2-6.3,11.8-8.2c4.5-1.9,9.5-2.9,14.9-2.9c5.4,0,10.4,1,15,2.9
			c4.6,1.9,8.5,4.7,11.8,8.2c3.3,3.6,5.8,7.8,7.6,12.8C337.3,130.1,338.2,135.7,338.2,141.8z M319.9,141.8c0-7.7-1.7-13.8-5-18.3
			c-3.3-4.5-7.9-6.7-13.8-6.7c-5.9,0-10.5,2.2-13.8,6.7c-3.3,4.5-5,10.6-5,18.3c0,7.8,1.7,14,5,18.5c3.3,4.5,7.9,6.8,13.8,6.8
			c5.9,0,10.5-2.3,13.8-6.8C318.2,155.7,319.9,149.6,319.9,141.8z"/>
		<path class="st2" d="M356.7,105.7c3.5-1,7.9-1.9,13.5-2.8c5.5-0.9,11.6-1.3,18.3-1.3c6.3,0,11.6,0.9,15.8,2.6
			c4.2,1.7,7.6,4.1,10.1,7.2c2.5,3.1,4.3,6.9,5.3,11.2c1,4.4,1.6,9.2,1.6,14.4v43.5h-17.9v-40.7c0-4.1-0.3-7.7-0.8-10.6
			c-0.5-2.9-1.4-5.3-2.7-7.1c-1.2-1.8-2.9-3.2-5-4c-2.1-0.8-4.7-1.3-7.8-1.3c-2.3,0-4.6,0.1-7.1,0.4c-2.5,0.3-4.3,0.5-5.5,0.7v62.4
			h-17.9V105.7z"/>
		<path class="st2" d="M512.4,180.5c-1.4-4-2.8-8-4.3-12c-1.5-3.9-2.9-8-4.3-12.1h-43.3c-1.4,4.1-2.8,8.2-4.2,12.2
			c-1.4,4-2.8,8-4.2,11.9h-19.4c3.8-10.9,7.5-21.1,10.9-30.3c3.4-9.3,6.8-18.1,10.1-26.3c3.3-8.3,6.6-16.2,9.8-23.7
			c3.3-7.5,6.6-14.9,10.1-22.2h17.8c3.5,7.3,6.8,14.7,10.1,22.2c3.3,7.5,6.5,15.4,9.8,23.7c3.3,8.3,6.7,17.1,10.2,26.3
			c3.5,9.3,7.2,19.4,11,30.3H512.4z M482.1,97.8c-2.3,5.2-4.9,11.6-7.8,19.1c-2.9,7.5-5.9,15.6-9.1,24.4H499
			c-3.2-8.8-6.2-17-9.2-24.6C486.8,109.2,484.3,102.9,482.1,97.8z"/>
		<path class="st2" d="M588.5,119.3c-1.5-0.5-3.5-1-6.1-1.6c-2.6-0.5-5.6-0.8-9.1-0.8c-2,0-4.1,0.2-6.3,0.6c-2.2,0.4-3.8,0.7-4.7,1
			v62h-17.9v-73.7c3.5-1.3,7.8-2.5,12.9-3.6c5.2-1.1,10.9-1.7,17.2-1.7c1.2,0,2.6,0.1,4.1,0.2c1.6,0.1,3.2,0.3,4.7,0.6
			c1.6,0.2,3.1,0.5,4.6,0.9c1.5,0.3,2.7,0.7,3.6,1L588.5,119.3z"/>
	</g>
</svg>
