<svg version="1.1" xmlns="http://www.w3.org/2000/svg" viewBox="0 0 1920 1080">
<style type="text/css">
	.st0{fill:none;stroke:#FFFFFF;stroke-width:2;stroke-miterlimit:10;}
</style>
<g>
	<polygon class="st0" points="960,53.2 947.5,34.2 947.5,-22.1 960,-1"/>
	<polygon class="st0" points="960,107.4 947.5,90.5 947.5,34.2 960,53.2"/>
	<polygon class="st0" points="960,161.5 947.5,146.8 947.5,90.5 960,107.4"/>
	<polygon class="st0" points="960,215.7 947.5,203.1 947.5,146.8 960,161.5"/>
	<polygon class="st0" points="960,269.9 947.5,259.3 947.5,203.1 960,215.7"/>
	<polygon class="st0" points="960,324.1 947.5,315.6 947.5,259.3 960,269.9"/>
	<polygon class="st0" points="960,378.2 947.5,371.9 947.5,315.6 960,324.1"/>
	<polygon class="st0" points="960,432.4 947.5,428.2 947.5,371.9 960,378.2"/>
	<polygon class="st0" points="960,486.6 947.5,484.5 947.5,428.2 960,432.4"/>
	<polygon class="st0" points="960,540.7 947.5,540.7 947.5,484.5 960,486.6"/>
	<polygon class="st0" points="960,594.9 947.5,597 947.5,540.7 960,540.7"/>
	<polygon class="st0" points="960,649.1 947.5,653.3 947.5,597 960,594.9"/>
	<polygon class="st0" points="960,703.3 947.5,709.6 947.5,653.3 960,649.1"/>
	<polygon class="st0" points="960,757.4 947.5,765.9 947.5,709.6 960,703.3"/>
	<polygon class="st0" points="960,811.6 947.5,822.2 947.5,765.9 960,757.4"/>
	<polygon class="st0" points="960,865.8 947.5,878.4 947.5,822.2 960,811.6"/>
	<polygon class="st0" points="960,920 947.5,934.7 947.5,878.4 960,865.8"/>
	<polygon class="st0" points="960,974.1 947.5,991 947.5,934.7 960,920"/>
	<polygon class="st0" points="960,1028.3 947.5,1047.3 947.5,991 960,974.1"/>
	<polygon class="st0" points="960,1082.5 947.5,1103.6 947.5,1047.3 960,1028.3"/>
	<polygon class="st0" points="947.5,34.2 934.1,13.7 934.1,-44.9 947.5,-22.1"/>
	<polygon class="st0" points="947.5,90.5 934.1,72.2 934.1,13.7 947.5,34.2"/>
	<polygon class="st0" points="947.5,146.8 934.1,130.8 934.1,72.2 947.5,90.5"/>
	<polygon class="st0" points="947.5,203.1 934.1,189.4 934.1,130.8 947.5,146.8"/>
	<polygon class="st0" points="947.5,259.3 934.1,247.9 934.1,189.4 947.5,203.1"/>
	<polygon class="st0" points="947.5,315.6 934.1,306.5 934.1,247.9 947.5,259.3"/>
	<polygon class="st0" points="947.5,371.9 934.1,365.1 934.1,306.5 947.5,315.6"/>
	<polygon class="st0" points="947.5,428.2 934.1,423.6 934.1,365.1 947.5,371.9"/>
	<polygon class="st0" points="947.5,484.5 934.1,482.2 934.1,423.6 947.5,428.2"/>
	<polygon class="st0" points="947.5,540.7 934.1,540.7 934.1,482.2 947.5,484.5"/>
	<polygon class="st0" points="947.5,597 934.1,599.3 934.1,540.7 947.5,540.7"/>
	<polygon class="st0" points="947.5,653.3 934.1,657.9 934.1,599.3 947.5,597"/>
	<polygon class="st0" points="947.5,709.6 934.1,716.4 934.1,657.9 947.5,653.3"/>
	<polygon class="st0" points="947.5,765.9 934.1,775 934.1,716.4 947.5,709.6"/>
	<polygon class="st0" points="947.5,822.2 934.1,833.6 934.1,775 947.5,765.9"/>
	<polygon class="st0" points="947.5,878.4 934.1,892.1 934.1,833.6 947.5,822.2"/>
	<polygon class="st0" points="947.5,934.7 934.1,950.7 934.1,892.1 947.5,878.4"/>
	<polygon class="st0" points="947.5,991 934.1,1009.3 934.1,950.7 947.5,934.7"/>
	<polygon class="st0" points="947.5,1047.3 934.1,1067.8 934.1,1009.3 947.5,991"/>
	<polygon class="st0" points="947.5,1103.6 934.1,1126.4 934.1,1067.8 947.5,1047.3"/>
	<polygon class="st0" points="934.1,13.7 919.4,-8.6 919.4,-69.6 934.1,-44.9"/>
	<polygon class="st0" points="934.1,72.2 919.4,52.4 919.4,-8.6 934.1,13.7"/>
	<polygon class="st0" points="934.1,130.8 919.4,113.5 919.4,52.4 934.1,72.2"/>
	<polygon class="st0" points="934.1,189.4 919.4,174.5 919.4,113.5 934.1,130.8"/>
	<polygon class="st0" points="934.1,247.9 919.4,235.6 919.4,174.5 934.1,189.4"/>
	<polygon class="st0" points="934.1,306.5 919.4,296.6 919.4,235.6 934.1,247.9"/>
	<polygon class="st0" points="934.1,365.1 919.4,357.6 919.4,296.6 934.1,306.5"/>
	<polygon class="st0" points="934.1,423.6 919.4,418.7 919.4,357.6 934.1,365.1"/>
	<polygon class="st0" points="934.1,482.2 919.4,479.7 919.4,418.7 934.1,423.6"/>
	<polygon class="st0" points="934.1,540.7 919.4,540.7 919.4,479.7 934.1,482.2"/>
	<polygon class="st0" points="934.1,599.3 919.4,601.8 919.4,540.7 934.1,540.7"/>
	<polygon class="st0" points="934.1,657.9 919.4,662.8 919.4,601.8 934.1,599.3"/>
	<polygon class="st0" points="934.1,716.4 919.4,723.9 919.4,662.8 934.1,657.9"/>
	<polygon class="st0" points="934.1,775 919.4,784.9 919.4,723.9 934.1,716.4"/>
	<polygon class="st0" points="934.1,833.6 919.4,845.9 919.4,784.9 934.1,775"/>
	<polygon class="st0" points="934.1,892.1 919.4,907 919.4,845.9 934.1,833.6"/>
	<polygon class="st0" points="934.1,950.7 919.4,968 919.4,907 934.1,892.1"/>
	<polygon class="st0" points="934.1,1009.3 919.4,1029.1 919.4,968 934.1,950.7"/>
	<polygon class="st0" points="934.1,1067.8 919.4,1090.1 919.4,1029.1 934.1,1009.3"/>
	<polygon class="st0" points="934.1,1126.4 919.4,1151.1 919.4,1090.1 934.1,1067.8"/>
	<polygon class="st0" points="919.4,52.4 903.5,30.9 903.5,-32.8 919.4,-8.6"/>
	<polygon class="st0" points="919.4,113.5 903.5,94.6 903.5,30.9 919.4,52.4"/>
	<polygon class="st0" points="919.4,174.5 903.5,158.4 903.5,94.6 919.4,113.5"/>
	<polygon class="st0" points="919.4,235.6 903.5,222.1 903.5,158.4 919.4,174.5"/>
	<polygon class="st0" points="919.4,296.6 903.5,285.8 903.5,222.1 919.4,235.6"/>
	<polygon class="st0" points="919.4,357.6 903.5,349.6 903.5,285.8 919.4,296.6"/>
	<polygon class="st0" points="919.4,418.7 903.5,413.3 903.5,349.6 919.4,357.6"/>
	<polygon class="st0" points="919.4,479.7 903.5,477 903.5,413.3 919.4,418.7"/>
	<polygon class="st0" points="919.4,540.7 903.5,540.7 903.5,477 919.4,479.7"/>
	<polygon class="st0" points="919.4,601.8 903.5,604.5 903.5,540.7 919.4,540.7"/>
	<polygon class="st0" points="919.4,662.8 903.5,668.2 903.5,604.5 919.4,601.8"/>
	<polygon class="st0" points="919.4,723.9 903.5,731.9 903.5,668.2 919.4,662.8"/>
	<polygon class="st0" points="919.4,784.9 903.5,795.7 903.5,731.9 919.4,723.9"/>
	<polygon class="st0" points="919.4,845.9 903.5,859.4 903.5,795.7 919.4,784.9"/>
	<polygon class="st0" points="919.4,907 903.5,923.1 903.5,859.4 919.4,845.9"/>
	<polygon class="st0" points="919.4,968 903.5,986.9 903.5,923.1 919.4,907"/>
	<polygon class="st0" points="919.4,1029.1 903.5,1050.6 903.5,986.9 919.4,968"/>
	<polygon class="st0" points="919.4,1090.1 903.5,1114.3 903.5,1050.6 919.4,1029.1"/>
	<polygon class="st0" points="903.5,30.9 886.2,7.4 886.2,-59.3 903.5,-32.8"/>
	<polygon class="st0" points="903.5,94.6 886.2,74 886.2,7.4 903.5,30.9"/>
	<polygon class="st0" points="903.5,158.4 886.2,140.7 886.2,74 903.5,94.6"/>
	<polygon class="st0" points="903.5,222.1 886.2,207.4 886.2,140.7 903.5,158.4"/>
	<polygon class="st0" points="903.5,285.8 886.2,274.1 886.2,207.4 903.5,222.1"/>
	<polygon class="st0" points="903.5,349.6 886.2,340.7 886.2,274.1 903.5,285.8"/>
	<polygon class="st0" points="903.5,413.3 886.2,407.4 886.2,340.7 903.5,349.6"/>
	<polygon class="st0" points="903.5,477 886.2,474.1 886.2,407.4 903.5,413.3"/>
	<polygon class="st0" points="903.5,540.7 886.2,540.7 886.2,474.1 903.5,477"/>
	<polygon class="st0" points="903.5,604.5 886.2,607.4 886.2,540.7 903.5,540.7"/>
	<polygon class="st0" points="903.5,668.2 886.2,674.1 886.2,607.4 903.5,604.5"/>
	<polygon class="st0" points="903.5,731.9 886.2,740.8 886.2,674.1 903.5,668.2"/>
	<polygon class="st0" points="903.5,795.7 886.2,807.4 886.2,740.8 903.5,731.9"/>
	<polygon class="st0" points="903.5,859.4 886.2,874.1 886.2,807.4 903.5,795.7"/>
	<polygon class="st0" points="903.5,923.1 886.2,940.8 886.2,874.1 903.5,859.4"/>
	<polygon class="st0" points="903.5,986.9 886.2,1007.5 886.2,940.8 903.5,923.1"/>
	<polygon class="st0" points="903.5,1050.6 886.2,1074.1 886.2,1007.5 903.5,986.9"/>
	<polygon class="st0" points="903.5,1114.3 886.2,1140.8 886.2,1074.1 903.5,1050.6"/>
	<polygon class="st0" points="886.2,7.4 867.1,-18.4 867.1,-88.3 886.2,-59.3"/>
	<polygon class="st0" points="886.2,74 867.1,51.5 867.1,-18.4 886.2,7.4"/>
	<polygon class="st0" points="886.2,140.7 867.1,121.4 867.1,51.5 886.2,74"/>
	<polygon class="st0" points="886.2,207.4 867.1,191.3 867.1,121.4 886.2,140.7"/>
	<polygon class="st0" points="886.2,274.1 867.1,261.2 867.1,191.3 886.2,207.4"/>
	<polygon class="st0" points="886.2,340.7 867.1,331.1 867.1,261.2 886.2,274.1"/>
	<polygon class="st0" points="886.2,407.4 867.1,401 867.1,331.1 886.2,340.7"/>
	<polygon class="st0" points="886.2,474.1 867.1,470.9 867.1,401 886.2,407.4"/>
	<polygon class="st0" points="886.2,540.7 867.1,540.7 867.1,470.9 886.2,474.1"/>
	<polygon class="st0" points="886.2,607.4 867.1,610.6 867.1,540.7 886.2,540.7"/>
	<polygon class="st0" points="886.2,674.1 867.1,680.5 867.1,610.6 886.2,607.4"/>
	<polygon class="st0" points="886.2,740.8 867.1,750.4 867.1,680.5 886.2,674.1"/>
	<polygon class="st0" points="886.2,807.4 867.1,820.3 867.1,750.4 886.2,740.8"/>
	<polygon class="st0" points="886.2,874.1 867.1,890.2 867.1,820.3 886.2,807.4"/>
	<polygon class="st0" points="886.2,940.8 867.1,960.1 867.1,890.2 886.2,874.1"/>
	<polygon class="st0" points="886.2,1007.5 867.1,1030 867.1,960.1 886.2,940.8"/>
	<polygon class="st0" points="886.2,1074.1 867.1,1099.9 867.1,1030 886.2,1007.5"/>
	<polygon class="st0" points="886.2,1140.8 867.1,1169.8 867.1,1099.9 886.2,1074.1"/>
	<polygon class="st0" points="867.1,51.5 846.1,26.6 846.1,-46.9 867.1,-18.4"/>
	<polygon class="st0" points="867.1,121.4 846.1,100 846.1,26.6 867.1,51.5"/>
	<polygon class="st0" points="867.1,191.3 846.1,173.5 846.1,100 867.1,121.4"/>
	<polygon class="st0" points="867.1,261.2 846.1,246.9 846.1,173.5 867.1,191.3"/>
	<polygon class="st0" points="867.1,331.1 846.1,320.4 846.1,246.9 867.1,261.2"/>
	<polygon class="st0" points="867.1,401 846.1,393.8 846.1,320.4 867.1,331.1"/>
	<polygon class="st0" points="867.1,470.9 846.1,467.3 846.1,393.8 867.1,401"/>
	<polygon class="st0" points="867.1,540.7 846.1,540.7 846.1,467.3 867.1,470.9"/>
	<polygon class="st0" points="867.1,610.6 846.1,614.2 846.1,540.7 867.1,540.7"/>
	<polygon class="st0" points="867.1,680.5 846.1,687.7 846.1,614.2 867.1,610.6"/>
	<polygon class="st0" points="867.1,750.4 846.1,761.1 846.1,687.7 867.1,680.5"/>
	<polygon class="st0" points="867.1,820.3 846.1,834.6 846.1,761.1 867.1,750.4"/>
	<polygon class="st0" points="867.1,890.2 846.1,908 846.1,834.6 867.1,820.3"/>
	<polygon class="st0" points="867.1,960.1 846.1,981.5 846.1,908 867.1,890.2"/>
	<polygon class="st0" points="867.1,1030 846.1,1054.9 846.1,981.5 867.1,960.1"/>
	<polygon class="st0" points="867.1,1099.9 846.1,1128.4 846.1,1054.9 867.1,1030"/>
	<polygon class="st0" points="846.1,26.6 822.9,-1 822.9,-78.4 846.1,-46.9"/>
	<polygon class="st0" points="846.1,100 822.9,76.4 822.9,-1 846.1,26.6"/>
	<polygon class="st0" points="846.1,173.5 822.9,153.8 822.9,76.4 846.1,100"/>
	<polygon class="st0" points="846.1,246.9 822.9,231.2 822.9,153.8 846.1,173.5"/>
	<polygon class="st0" points="846.1,320.4 822.9,308.6 822.9,231.2 846.1,246.9"/>
	<polygon class="st0" points="846.1,393.8 822.9,386 822.9,308.6 846.1,320.4"/>
	<polygon class="st0" points="846.1,467.3 822.9,463.4 822.9,386 846.1,393.8"/>
	<polygon class="st0" points="846.1,540.7 822.9,540.7 822.9,463.4 846.1,467.3"/>
	<polygon class="st0" points="846.1,614.2 822.9,618.1 822.9,540.7 846.1,540.7"/>
	<polygon class="st0" points="846.1,687.7 822.9,695.5 822.9,618.1 846.1,614.2"/>
	<polygon class="st0" points="846.1,761.1 822.9,772.9 822.9,695.5 846.1,687.7"/>
	<polygon class="st0" points="846.1,834.6 822.9,850.3 822.9,772.9 846.1,761.1"/>
	<polygon class="st0" points="846.1,908 822.9,927.7 822.9,850.3 846.1,834.6"/>
	<polygon class="st0" points="846.1,981.5 822.9,1005.1 822.9,927.7 846.1,908"/>
	<polygon class="st0" points="846.1,1054.9 822.9,1082.5 822.9,1005.1 846.1,981.5"/>
	<polygon class="st0" points="846.1,1128.4 822.9,1159.9 822.9,1082.5 846.1,1054.9"/>
	<polygon class="st0" points="822.9,-1 797,-31.6 797,-113.4 822.9,-78.4"/>
	<polygon class="st0" points="822.9,76.4 797,50.1 797,-31.6 822.9,-1"/>
	<polygon class="st0" points="822.9,153.8 797,131.9 797,50.1 822.9,76.4"/>
	<polygon class="st0" points="822.9,231.2 797,213.7 797,131.9 822.9,153.8"/>
	<polygon class="st0" points="822.9,308.6 797,295.4 797,213.7 822.9,231.2"/>
	<polygon class="st0" points="822.9,386 797,377.2 797,295.4 822.9,308.6"/>
	<polygon class="st0" points="822.9,463.4 797,459 797,377.2 822.9,386"/>
	<polygon class="st0" points="822.9,540.7 797,540.7 797,459 822.9,463.4"/>
	<polygon class="st0" points="822.9,618.1 797,622.5 797,540.7 822.9,540.7"/>
	<polygon class="st0" points="822.9,695.5 797,704.3 797,622.5 822.9,618.1"/>
	<polygon class="st0" points="822.9,772.9 797,786.1 797,704.3 822.9,695.5"/>
	<polygon class="st0" points="822.9,850.3 797,867.8 797,786.1 822.9,772.9"/>
	<polygon class="st0" points="822.9,927.7 797,949.6 797,867.8 822.9,850.3"/>
	<polygon class="st0" points="822.9,1005.1 797,1031.4 797,949.6 822.9,927.7"/>
	<polygon class="st0" points="822.9,1082.5 797,1113.1 797,1031.4 822.9,1005.1"/>
	<polygon class="st0" points="822.9,1159.9 797,1194.9 797,1113.1 822.9,1082.5"/>
	<polygon class="st0" points="797,50.1 768,20.7 768,-66 797,-31.6"/>
	<polygon class="st0" points="797,131.9 768,107.4 768,20.7 797,50.1"/>
	<polygon class="st0" points="797,213.7 768,194.1 768,107.4 797,131.9"/>
	<polygon class="st0" points="797,295.4 768,280.7 768,194.1 797,213.7"/>
	<polygon class="st0" points="797,377.2 768,367.4 768,280.7 797,295.4"/>
	<polygon class="st0" points="797,459 768,454.1 768,367.4 797,377.2"/>
	<polygon class="st0" points="797,540.7 768,540.7 768,454.1 797,459"/>
	<polygon class="st0" points="797,622.5 768,627.4 768,540.7 797,540.7"/>
	<polygon class="st0" points="797,704.3 768,714.1 768,627.4 797,622.5"/>
	<polygon class="st0" points="797,786.1 768,800.8 768,714.1 797,704.3"/>
	<polygon class="st0" points="797,867.8 768,887.4 768,800.8 797,786.1"/>
	<polygon class="st0" points="797,949.6 768,974.1 768,887.4 797,867.8"/>
	<polygon class="st0" points="797,1031.4 768,1060.8 768,974.1 797,949.6"/>
	<polygon class="st0" points="797,1113.1 768,1147.5 768,1060.8 797,1031.4"/>
	<polygon class="st0" points="768,20.7 735.3,-12.5 735.3,-104.7 768,-66"/>
	<polygon class="st0" points="768,107.4 735.3,79.7 735.3,-12.5 768,20.7"/>
	<polygon class="st0" points="768,194.1 735.3,171.9 735.3,79.7 768,107.4"/>
	<polygon class="st0" points="768,280.7 735.3,264.1 735.3,171.9 768,194.1"/>
	<polygon class="st0" points="768,367.4 735.3,356.3 735.3,264.1 768,280.7"/>
	<polygon class="st0" points="768,454.1 735.3,448.5 735.3,356.3 768,367.4"/>
	<polygon class="st0" points="768,540.7 735.3,540.7 735.3,448.5 768,454.1"/>
	<polygon class="st0" points="768,627.4 735.3,633 735.3,540.7 768,540.7"/>
	<polygon class="st0" points="768,714.1 735.3,725.2 735.3,633 768,627.4"/>
	<polygon class="st0" points="768,800.8 735.3,817.4 735.3,725.2 768,714.1"/>
	<polygon class="st0" points="768,887.4 735.3,909.6 735.3,817.4 768,800.8"/>
	<polygon class="st0" points="768,974.1 735.3,1001.8 735.3,909.6 768,887.4"/>
	<polygon class="st0" points="768,1060.8 735.3,1094 735.3,1001.8 768,974.1"/>
	<polygon class="st0" points="768,1147.5 735.3,1186.2 735.3,1094 768,1060.8"/>
	<polygon class="st0" points="735.3,79.7 698.2,48.3 698.2,-50.2 735.3,-12.5"/>
	<polygon class="st0" points="735.3,171.9 698.2,146.8 698.2,48.3 735.3,79.7"/>
	<polygon class="st0" points="735.3,264.1 698.2,245.3 698.2,146.8 735.3,171.9"/>
	<polygon class="st0" points="735.3,356.3 698.2,343.8 698.2,245.3 735.3,264.1"/>
	<polygon class="st0" points="735.3,448.5 698.2,442.3 698.2,343.8 735.3,356.3"/>
	<polygon class="st0" points="735.3,540.7 698.2,540.7 698.2,442.3 735.3,448.5"/>
	<polygon class="st0" points="735.3,633 698.2,639.2 698.2,540.7 735.3,540.7"/>
	<polygon class="st0" points="735.3,725.2 698.2,737.7 698.2,639.2 735.3,633"/>
	<polygon class="st0" points="735.3,817.4 698.2,836.2 698.2,737.7 735.3,725.2"/>
	<polygon class="st0" points="735.3,909.6 698.2,934.7 698.2,836.2 735.3,817.4"/>
	<polygon class="st0" points="735.3,1001.8 698.2,1033.2 698.2,934.7 735.3,909.6"/>
	<polygon class="st0" points="735.3,1094 698.2,1131.7 698.2,1033.2 735.3,1001.8"/>
	<polygon class="st0" points="698.2,48.3 655.6,12.2 655.6,-93.5 698.2,-50.2"/>
	<polygon class="st0" points="698.2,146.8 655.6,117.9 655.6,12.2 698.2,48.3"/>
	<polygon class="st0" points="698.2,245.3 655.6,223.6 655.6,117.9 698.2,146.8"/>
	<polygon class="st0" points="698.2,343.8 655.6,329.3 655.6,223.6 698.2,245.3"/>
	<polygon class="st0" points="698.2,442.3 655.6,435 655.6,329.3 698.2,343.8"/>
	<polygon class="st0" points="698.2,540.7 655.6,540.7 655.6,435 698.2,442.3"/>
	<polygon class="st0" points="698.2,639.2 655.6,646.5 655.6,540.7 698.2,540.7"/>
	<polygon class="st0" points="698.2,737.7 655.6,752.2 655.6,646.5 698.2,639.2"/>
	<polygon class="st0" points="698.2,836.2 655.6,857.9 655.6,752.2 698.2,737.7"/>
	<polygon class="st0" points="698.2,934.7 655.6,963.6 655.6,857.9 698.2,836.2"/>
	<polygon class="st0" points="698.2,1033.2 655.6,1069.3 655.6,963.6 698.2,934.7"/>
	<polygon class="st0" points="698.2,1131.7 655.6,1175 655.6,1069.3 698.2,1033.2"/>
	<polygon class="st0" points="655.6,12.2 606.3,-29.5 655.6,-93.5"/>
	<polygon class="st0" points="655.6,117.9 606.3,84.6 606.3,-29.5 655.6,12.2"/>
	<polygon class="st0" points="655.6,223.6 606.3,198.6 606.3,84.6 655.6,117.9"/>
	<polygon class="st0" points="655.6,329.3 606.3,312.7 606.3,198.6 655.6,223.6"/>
	<polygon class="st0" points="655.6,435 606.3,426.7 606.3,312.7 655.6,329.3"/>
	<polygon class="st0" points="655.6,540.7 606.3,540.7 606.3,426.7 655.6,435"/>
	<polygon class="st0" points="655.6,646.5 606.3,654.8 606.3,540.7 655.6,540.7"/>
	<polygon class="st0" points="655.6,752.2 606.3,768.8 606.3,654.8 655.6,646.5"/>
	<polygon class="st0" points="655.6,857.9 606.3,882.9 606.3,768.8 655.6,752.2"/>
	<polygon class="st0" points="655.6,963.6 606.3,996.9 606.3,882.9 655.6,857.9"/>
	<polygon class="st0" points="655.6,1069.3 606.3,1111 606.3,996.9 655.6,963.6"/>
	<polygon class="st0" points="655.6,1175 606.3,1111 655.6,1069.3"/>
	<polygon class="st0" points="606.3,84.6 548.6,45.5 548.6,-78.4 606.3,-29.5"/>
	<polygon class="st0" points="606.3,198.6 548.6,169.3 548.6,45.5 606.3,84.6"/>
	<polygon class="st0" points="606.3,312.7 548.6,293.1 548.6,169.3 606.3,198.6"/>
	<polygon class="st0" points="606.3,426.7 548.6,416.9 548.6,293.1 606.3,312.7"/>
	<polygon class="st0" points="606.3,540.7 548.6,540.7 548.6,416.9 606.3,426.7"/>
	<polygon class="st0" points="606.3,654.8 548.6,664.6 548.6,540.7 606.3,540.7"/>
	<polygon class="st0" points="606.3,768.8 548.6,788.4 548.6,664.6 606.3,654.8"/>
	<polygon class="st0" points="606.3,882.9 548.6,912.2 548.6,788.4 606.3,768.8"/>
	<polygon class="st0" points="606.3,996.9 548.6,1036 548.6,912.2 606.3,882.9"/>
	<polygon class="st0" points="606.3,1111 548.6,1159.9 548.6,1036 606.3,996.9"/>
	<polygon class="st0" points="548.6,45.5 480,-1 480,-136.4 548.6,-78.4"/>
	<polygon class="st0" points="548.6,169.3 480,134.5 480,-1 548.6,45.5"/>
	<polygon class="st0" points="548.6,293.1 480,269.9 480,134.5 548.6,169.3"/>
	<polygon class="st0" points="548.6,416.9 480,405.3 480,269.9 548.6,293.1"/>
	<polygon class="st0" points="548.6,540.7 480,540.7 480,405.3 548.6,416.9"/>
	<polygon class="st0" points="548.6,664.6 480,676.2 480,540.7 548.6,540.7"/>
	<polygon class="st0" points="548.6,788.4 480,811.6 480,676.2 548.6,664.6"/>
	<polygon class="st0" points="548.6,912.2 480,947 480,811.6 548.6,788.4"/>
	<polygon class="st0" points="548.6,1036 480,1082.5 480,947 548.6,912.2"/>
	<polygon class="st0" points="548.6,1159.9 480,1217.9 480,1082.5 548.6,1036"/>
	<polygon class="st0" points="480,-1 397.2,-57 480,-136.4"/>
	<polygon class="st0" points="480,134.5 397.2,92.4 397.2,-57 480,-1"/>
	<polygon class="st0" points="480,269.9 397.2,241.9 397.2,92.4 480,134.5"/>
	<polygon class="st0" points="480,405.3 397.2,391.3 397.2,241.9 480,269.9"/>
	<polygon class="st0" points="480,540.7 397.2,540.7 397.2,391.3 480,405.3"/>
	<polygon class="st0" points="480,676.2 397.2,690.2 397.2,540.7 480,540.7"/>
	<polygon class="st0" points="480,811.6 397.2,839.6 397.2,690.2 480,676.2"/>
	<polygon class="st0" points="480,947 397.2,989.1 397.2,839.6 480,811.6"/>
	<polygon class="st0" points="480,1082.5 397.2,1138.5 397.2,989.1 480,947"/>
	<polygon class="st0" points="480,1217.9 397.2,1138.5 480,1082.5"/>
	<polygon class="st0" points="397.2,92.4 295.4,40.7 295.4,-126 397.2,-57"/>
	<polygon class="st0" points="397.2,241.9 295.4,207.4 295.4,40.7 397.2,92.4"/>
	<polygon class="st0" points="397.2,391.3 295.4,374.1 295.4,207.4 397.2,241.9"/>
	<polygon class="st0" points="397.2,540.7 295.4,540.7 295.4,374.1 397.2,391.3"/>
	<polygon class="st0" points="397.2,690.2 295.4,707.4 295.4,540.7 397.2,540.7"/>
	<polygon class="st0" points="397.2,839.6 295.4,874.1 295.4,707.4 397.2,690.2"/>
	<polygon class="st0" points="397.2,989.1 295.4,1040.8 295.4,874.1 397.2,839.6"/>
	<polygon class="st0" points="397.2,1138.5 295.4,1207.5 295.4,1040.8 397.2,989.1"/>
	<polygon class="st0" points="295.4,40.7 167,-24.5 295.4,-126"/>
	<polygon class="st0" points="295.4,207.4 167,163.9 167,-24.5 295.4,40.7"/>
	<polygon class="st0" points="295.4,374.1 167,352.3 167,163.9 295.4,207.4"/>
	<polygon class="st0" points="295.4,540.7 167,540.7 167,352.3 295.4,374.1"/>
	<polygon class="st0" points="295.4,707.4 167,729.2 167,540.7 295.4,540.7"/>
	<polygon class="st0" points="295.4,874.1 167,917.6 167,729.2 295.4,707.4"/>
	<polygon class="st0" points="295.4,1040.8 167,1106 167,917.6 295.4,874.1"/>
	<polygon class="st0" points="295.4,1207.5 167,1106 295.4,1040.8"/>
	<polygon class="st0" points="167,163.9 0,107.4 0,-109.3 167,-24.5"/>
	<polygon class="st0" points="167,352.3 0,324.1 0,107.4 167,163.9"/>
	<polygon class="st0" points="167,540.7 0,540.7 0,324.1 167,352.3"/>
	<polygon class="st0" points="167,729.2 0,757.4 0,540.7 167,540.7"/>
	<polygon class="st0" points="167,917.6 0,974.1 0,757.4 167,729.2"/>
	<polygon class="st0" points="167,1106 0,1190.8 0,974.1 167,917.6"/>
</g>
<g>
	<polygon class="st0" points="960,53.2 972.5,34.2 972.5,-22.1 960,-1"/>
	<polygon class="st0" points="960,107.4 972.5,90.5 972.5,34.2 960,53.2"/>
	<polygon class="st0" points="960,161.5 972.5,146.8 972.5,90.5 960,107.4"/>
	<polygon class="st0" points="960,215.7 972.5,203.1 972.5,146.8 960,161.5"/>
	<polygon class="st0" points="960,269.9 972.5,259.3 972.5,203.1 960,215.7"/>
	<polygon class="st0" points="960,324.1 972.5,315.6 972.5,259.3 960,269.9"/>
	<polygon class="st0" points="960,378.2 972.5,371.9 972.5,315.6 960,324.1"/>
	<polygon class="st0" points="960,432.4 972.5,428.2 972.5,371.9 960,378.2"/>
	<polygon class="st0" points="960,486.6 972.5,484.5 972.5,428.2 960,432.4"/>
	<polygon class="st0" points="960,540.7 972.5,540.7 972.5,484.5 960,486.6"/>
	<polygon class="st0" points="960,594.9 972.5,597 972.5,540.7 960,540.7"/>
	<polygon class="st0" points="960,649.1 972.5,653.3 972.5,597 960,594.9"/>
	<polygon class="st0" points="960,703.3 972.5,709.6 972.5,653.3 960,649.1"/>
	<polygon class="st0" points="960,757.4 972.5,765.9 972.5,709.6 960,703.3"/>
	<polygon class="st0" points="960,811.6 972.5,822.2 972.5,765.9 960,757.4"/>
	<polygon class="st0" points="960,865.8 972.5,878.4 972.5,822.2 960,811.6"/>
	<polygon class="st0" points="960,920 972.5,934.7 972.5,878.4 960,865.8"/>
	<polygon class="st0" points="960,974.1 972.5,991 972.5,934.7 960,920"/>
	<polygon class="st0" points="960,1028.3 972.5,1047.3 972.5,991 960,974.1"/>
	<polygon class="st0" points="960,1082.5 972.5,1103.6 972.5,1047.3 960,1028.3"/>
	<polygon class="st0" points="972.5,34.2 985.9,13.7 985.9,-44.9 972.5,-22.1"/>
	<polygon class="st0" points="972.5,90.5 985.9,72.2 985.9,13.7 972.5,34.2"/>
	<polygon class="st0" points="972.5,146.8 985.9,130.8 985.9,72.2 972.5,90.5"/>
	<polygon class="st0" points="972.5,203.1 985.9,189.4 985.9,130.8 972.5,146.8"/>
	<polygon class="st0" points="972.5,259.3 985.9,247.9 985.9,189.4 972.5,203.1"/>
	<polygon class="st0" points="972.5,315.6 985.9,306.5 985.9,247.9 972.5,259.3"/>
	<polygon class="st0" points="972.5,371.9 985.9,365.1 985.9,306.5 972.5,315.6"/>
	<polygon class="st0" points="972.5,428.2 985.9,423.6 985.9,365.1 972.5,371.9"/>
	<polygon class="st0" points="972.5,484.5 985.9,482.2 985.9,423.6 972.5,428.2"/>
	<polygon class="st0" points="972.5,540.7 985.9,540.7 985.9,482.2 972.5,484.5"/>
	<polygon class="st0" points="972.5,597 985.9,599.3 985.9,540.7 972.5,540.7"/>
	<polygon class="st0" points="972.5,653.3 985.9,657.9 985.9,599.3 972.5,597"/>
	<polygon class="st0" points="972.5,709.6 985.9,716.4 985.9,657.9 972.5,653.3"/>
	<polygon class="st0" points="972.5,765.9 985.9,775 985.9,716.4 972.5,709.6"/>
	<polygon class="st0" points="972.5,822.2 985.9,833.6 985.9,775 972.5,765.9"/>
	<polygon class="st0" points="972.5,878.4 985.9,892.1 985.9,833.6 972.5,822.2"/>
	<polygon class="st0" points="972.5,934.7 985.9,950.7 985.9,892.1 972.5,878.4"/>
	<polygon class="st0" points="972.5,991 985.9,1009.3 985.9,950.7 972.5,934.7"/>
	<polygon class="st0" points="972.5,1047.3 985.9,1067.8 985.9,1009.3 972.5,991"/>
	<polygon class="st0" points="972.5,1103.6 985.9,1126.4 985.9,1067.8 972.5,1047.3"/>
	<polygon class="st0" points="985.9,13.7 1000.6,-8.6 1000.6,-69.6 985.9,-44.9"/>
	<polygon class="st0" points="985.9,72.2 1000.6,52.4 1000.6,-8.6 985.9,13.7"/>
	<polygon class="st0" points="985.9,130.8 1000.6,113.5 1000.6,52.4 985.9,72.2"/>
	<polygon class="st0" points="985.9,189.4 1000.6,174.5 1000.6,113.5 985.9,130.8"/>
	<polygon class="st0" points="985.9,247.9 1000.6,235.6 1000.6,174.5 985.9,189.4"/>
	<polygon class="st0" points="985.9,306.5 1000.6,296.6 1000.6,235.6 985.9,247.9"/>
	<polygon class="st0" points="985.9,365.1 1000.6,357.6 1000.6,296.6 985.9,306.5"/>
	<polygon class="st0" points="985.9,423.6 1000.6,418.7 1000.6,357.6 985.9,365.1"/>
	<polygon class="st0" points="985.9,482.2 1000.6,479.7 1000.6,418.7 985.9,423.6"/>
	<polygon class="st0" points="985.9,540.7 1000.6,540.7 1000.6,479.7 985.9,482.2"/>
	<polygon class="st0" points="985.9,599.3 1000.6,601.8 1000.6,540.7 985.9,540.7"/>
	<polygon class="st0" points="985.9,657.9 1000.6,662.8 1000.6,601.8 985.9,599.3"/>
	<polygon class="st0" points="985.9,716.4 1000.6,723.9 1000.6,662.8 985.9,657.9"/>
	<polygon class="st0" points="985.9,775 1000.6,784.9 1000.6,723.9 985.9,716.4"/>
	<polygon class="st0" points="985.9,833.6 1000.6,845.9 1000.6,784.9 985.9,775"/>
	<polygon class="st0" points="985.9,892.1 1000.6,907 1000.6,845.9 985.9,833.6"/>
	<polygon class="st0" points="985.9,950.7 1000.6,968 1000.6,907 985.9,892.1"/>
	<polygon class="st0" points="985.9,1009.3 1000.6,1029.1 1000.6,968 985.9,950.7"/>
	<polygon class="st0" points="985.9,1067.8 1000.6,1090.1 1000.6,1029.1 985.9,1009.3"/>
	<polygon class="st0" points="985.9,1126.4 1000.6,1151.1 1000.6,1090.1 985.9,1067.8"/>
	<polygon class="st0" points="1000.6,52.4 1016.5,30.9 1016.5,-32.8 1000.6,-8.6"/>
	<polygon class="st0" points="1000.6,113.5 1016.5,94.6 1016.5,30.9 1000.6,52.4"/>
	<polygon class="st0" points="1000.6,174.5 1016.5,158.4 1016.5,94.6 1000.6,113.5"/>
	<polygon class="st0" points="1000.6,235.6 1016.5,222.1 1016.5,158.4 1000.6,174.5"/>
	<polygon class="st0" points="1000.6,296.6 1016.5,285.8 1016.5,222.1 1000.6,235.6"/>
	<polygon class="st0" points="1000.6,357.6 1016.5,349.6 1016.5,285.8 1000.6,296.6"/>
	<polygon class="st0" points="1000.6,418.7 1016.5,413.3 1016.5,349.6 1000.6,357.6"/>
	<polygon class="st0" points="1000.6,479.7 1016.5,477 1016.5,413.3 1000.6,418.7"/>
	<polygon class="st0" points="1000.6,540.7 1016.5,540.7 1016.5,477 1000.6,479.7"/>
	<polygon class="st0" points="1000.6,601.8 1016.5,604.5 1016.5,540.7 1000.6,540.7"/>
	<polygon class="st0" points="1000.6,662.8 1016.5,668.2 1016.5,604.5 1000.6,601.8"/>
	<polygon class="st0" points="1000.6,723.9 1016.5,731.9 1016.5,668.2 1000.6,662.8"/>
	<polygon class="st0" points="1000.6,784.9 1016.5,795.7 1016.5,731.9 1000.6,723.9"/>
	<polygon class="st0" points="1000.6,845.9 1016.5,859.4 1016.5,795.7 1000.6,784.9"/>
	<polygon class="st0" points="1000.6,907 1016.5,923.1 1016.5,859.4 1000.6,845.9"/>
	<polygon class="st0" points="1000.6,968 1016.5,986.9 1016.5,923.1 1000.6,907"/>
	<polygon class="st0" points="1000.6,1029.1 1016.5,1050.6 1016.5,986.9 1000.6,968"/>
	<polygon class="st0" points="1000.6,1090.1 1016.5,1114.3 1016.5,1050.6 1000.6,1029.1"/>
	<polygon class="st0" points="1016.5,30.9 1033.8,7.4 1033.8,-59.3 1016.5,-32.8"/>
	<polygon class="st0" points="1016.5,94.6 1033.8,74 1033.8,7.4 1016.5,30.9"/>
	<polygon class="st0" points="1016.5,158.4 1033.8,140.7 1033.8,74 1016.5,94.6"/>
	<polygon class="st0" points="1016.5,222.1 1033.8,207.4 1033.8,140.7 1016.5,158.4"/>
	<polygon class="st0" points="1016.5,285.8 1033.8,274.1 1033.8,207.4 1016.5,222.1"/>
	<polygon class="st0" points="1016.5,349.6 1033.8,340.7 1033.8,274.1 1016.5,285.8"/>
	<polygon class="st0" points="1016.5,413.3 1033.8,407.4 1033.8,340.7 1016.5,349.6"/>
	<polygon class="st0" points="1016.5,477 1033.8,474.1 1033.8,407.4 1016.5,413.3"/>
	<polygon class="st0" points="1016.5,540.7 1033.8,540.7 1033.8,474.1 1016.5,477"/>
	<polygon class="st0" points="1016.5,604.5 1033.8,607.4 1033.8,540.7 1016.5,540.7"/>
	<polygon class="st0" points="1016.5,668.2 1033.8,674.1 1033.8,607.4 1016.5,604.5"/>
	<polygon class="st0" points="1016.5,731.9 1033.8,740.8 1033.8,674.1 1016.5,668.2"/>
	<polygon class="st0" points="1016.5,795.7 1033.8,807.4 1033.8,740.8 1016.5,731.9"/>
	<polygon class="st0" points="1016.5,859.4 1033.8,874.1 1033.8,807.4 1016.5,795.7"/>
	<polygon class="st0" points="1016.5,923.1 1033.8,940.8 1033.8,874.1 1016.5,859.4"/>
	<polygon class="st0" points="1016.5,986.9 1033.8,1007.5 1033.8,940.8 1016.5,923.1"/>
	<polygon class="st0" points="1016.5,1050.6 1033.8,1074.1 1033.8,1007.5 1016.5,986.9"/>
	<polygon class="st0" points="1016.5,1114.3 1033.8,1140.8 1033.8,1074.1 1016.5,1050.6"/>
	<polygon class="st0" points="1033.8,7.4 1052.9,-18.4 1052.9,-88.3 1033.8,-59.3"/>
	<polygon class="st0" points="1033.8,74 1052.9,51.5 1052.9,-18.4 1033.8,7.4"/>
	<polygon class="st0" points="1033.8,140.7 1052.9,121.4 1052.9,51.5 1033.8,74"/>
	<polygon class="st0" points="1033.8,207.4 1052.9,191.3 1052.9,121.4 1033.8,140.7"/>
	<polygon class="st0" points="1033.8,274.1 1052.9,261.2 1052.9,191.3 1033.8,207.4"/>
	<polygon class="st0" points="1033.8,340.7 1052.9,331.1 1052.9,261.2 1033.8,274.1"/>
	<polygon class="st0" points="1033.8,407.4 1052.9,401 1052.9,331.1 1033.8,340.7"/>
	<polygon class="st0" points="1033.8,474.1 1052.9,470.9 1052.9,401 1033.8,407.4"/>
	<polygon class="st0" points="1033.8,540.7 1052.9,540.7 1052.9,470.9 1033.8,474.1"/>
	<polygon class="st0" points="1033.8,607.4 1052.9,610.6 1052.9,540.7 1033.8,540.7"/>
	<polygon class="st0" points="1033.8,674.1 1052.9,680.5 1052.9,610.6 1033.8,607.4"/>
	<polygon class="st0" points="1033.8,740.8 1052.9,750.4 1052.9,680.5 1033.8,674.1"/>
	<polygon class="st0" points="1033.8,807.4 1052.9,820.3 1052.9,750.4 1033.8,740.8"/>
	<polygon class="st0" points="1033.8,874.1 1052.9,890.2 1052.9,820.3 1033.8,807.4"/>
	<polygon class="st0" points="1033.8,940.8 1052.9,960.1 1052.9,890.2 1033.8,874.1"/>
	<polygon class="st0" points="1033.8,1007.5 1052.9,1030 1052.9,960.1 1033.8,940.8"/>
	<polygon class="st0" points="1033.8,1074.1 1052.9,1099.9 1052.9,1030 1033.8,1007.5"/>
	<polygon class="st0" points="1033.8,1140.8 1052.9,1169.8 1052.9,1099.9 1033.8,1074.1"/>
	<polygon class="st0" points="1052.9,51.5 1073.9,26.6 1073.9,-46.9 1052.9,-18.4"/>
	<polygon class="st0" points="1052.9,121.4 1073.9,100 1073.9,26.6 1052.9,51.5"/>
	<polygon class="st0" points="1052.9,191.3 1073.9,173.5 1073.9,100 1052.9,121.4"/>
	<polygon class="st0" points="1052.9,261.2 1073.9,246.9 1073.9,173.5 1052.9,191.3"/>
	<polygon class="st0" points="1052.9,331.1 1073.9,320.4 1073.9,246.9 1052.9,261.2"/>
	<polygon class="st0" points="1052.9,401 1073.9,393.8 1073.9,320.4 1052.9,331.1"/>
	<polygon class="st0" points="1052.9,470.9 1073.9,467.3 1073.9,393.8 1052.9,401"/>
	<polygon class="st0" points="1052.9,540.7 1073.9,540.7 1073.9,467.3 1052.9,470.9"/>
	<polygon class="st0" points="1052.9,610.6 1073.9,614.2 1073.9,540.7 1052.9,540.7"/>
	<polygon class="st0" points="1052.9,680.5 1073.9,687.7 1073.9,614.2 1052.9,610.6"/>
	<polygon class="st0" points="1052.9,750.4 1073.9,761.1 1073.9,687.7 1052.9,680.5"/>
	<polygon class="st0" points="1052.9,820.3 1073.9,834.6 1073.9,761.1 1052.9,750.4"/>
	<polygon class="st0" points="1052.9,890.2 1073.9,908 1073.9,834.6 1052.9,820.3"/>
	<polygon class="st0" points="1052.9,960.1 1073.9,981.5 1073.9,908 1052.9,890.2"/>
	<polygon class="st0" points="1052.9,1030 1073.9,1054.9 1073.9,981.5 1052.9,960.1"/>
	<polygon class="st0" points="1052.9,1099.9 1073.9,1128.4 1073.9,1054.9 1052.9,1030"/>
	<polygon class="st0" points="1073.9,26.6 1097.1,-1 1097.1,-78.4 1073.9,-46.9"/>
	<polygon class="st0" points="1073.9,100 1097.1,76.4 1097.1,-1 1073.9,26.6"/>
	<polygon class="st0" points="1073.9,173.5 1097.1,153.8 1097.1,76.4 1073.9,100"/>
	<polygon class="st0" points="1073.9,246.9 1097.1,231.2 1097.1,153.8 1073.9,173.5"/>
	<polygon class="st0" points="1073.9,320.4 1097.1,308.6 1097.1,231.2 1073.9,246.9"/>
	<polygon class="st0" points="1073.9,393.8 1097.1,386 1097.1,308.6 1073.9,320.4"/>
	<polygon class="st0" points="1073.9,467.3 1097.1,463.4 1097.1,386 1073.9,393.8"/>
	<polygon class="st0" points="1073.9,540.7 1097.1,540.7 1097.1,463.4 1073.9,467.3"/>
	<polygon class="st0" points="1073.9,614.2 1097.1,618.1 1097.1,540.7 1073.9,540.7"/>
	<polygon class="st0" points="1073.9,687.7 1097.1,695.5 1097.1,618.1 1073.9,614.2"/>
	<polygon class="st0" points="1073.9,761.1 1097.1,772.9 1097.1,695.5 1073.9,687.7"/>
	<polygon class="st0" points="1073.9,834.6 1097.1,850.3 1097.1,772.9 1073.9,761.1"/>
	<polygon class="st0" points="1073.9,908 1097.1,927.7 1097.1,850.3 1073.9,834.6"/>
	<polygon class="st0" points="1073.9,981.5 1097.1,1005.1 1097.1,927.7 1073.9,908"/>
	<polygon class="st0" points="1073.9,1054.9 1097.1,1082.5 1097.1,1005.1 1073.9,981.5"/>
	<polygon class="st0" points="1073.9,1128.4 1097.1,1159.9 1097.1,1082.5 1073.9,1054.9"/>
	<polygon class="st0" points="1097.1,-1 1123,-31.6 1123,-113.4 1097.1,-78.4"/>
	<polygon class="st0" points="1097.1,76.4 1123,50.1 1123,-31.6 1097.1,-1"/>
	<polygon class="st0" points="1097.1,153.8 1123,131.9 1123,50.1 1097.1,76.4"/>
	<polygon class="st0" points="1097.1,231.2 1123,213.7 1123,131.9 1097.1,153.8"/>
	<polygon class="st0" points="1097.1,308.6 1123,295.4 1123,213.7 1097.1,231.2"/>
	<polygon class="st0" points="1097.1,386 1123,377.2 1123,295.4 1097.1,308.6"/>
	<polygon class="st0" points="1097.1,463.4 1123,459 1123,377.2 1097.1,386"/>
	<polygon class="st0" points="1097.1,540.7 1123,540.7 1123,459 1097.1,463.4"/>
	<polygon class="st0" points="1097.1,618.1 1123,622.5 1123,540.7 1097.1,540.7"/>
	<polygon class="st0" points="1097.1,695.5 1123,704.3 1123,622.5 1097.1,618.1"/>
	<polygon class="st0" points="1097.1,772.9 1123,786.1 1123,704.3 1097.1,695.5"/>
	<polygon class="st0" points="1097.1,850.3 1123,867.8 1123,786.1 1097.1,772.9"/>
	<polygon class="st0" points="1097.1,927.7 1123,949.6 1123,867.8 1097.1,850.3"/>
	<polygon class="st0" points="1097.1,1005.1 1123,1031.4 1123,949.6 1097.1,927.7"/>
	<polygon class="st0" points="1097.1,1082.5 1123,1113.1 1123,1031.4 1097.1,1005.1"/>
	<polygon class="st0" points="1097.1,1159.9 1123,1194.9 1123,1113.1 1097.1,1082.5"/>
	<polygon class="st0" points="1123,50.1 1152,20.7 1152,-66 1123,-31.6"/>
	<polygon class="st0" points="1123,131.9 1152,107.4 1152,20.7 1123,50.1"/>
	<polygon class="st0" points="1123,213.7 1152,194.1 1152,107.4 1123,131.9"/>
	<polygon class="st0" points="1123,295.4 1152,280.7 1152,194.1 1123,213.7"/>
	<polygon class="st0" points="1123,377.2 1152,367.4 1152,280.7 1123,295.4"/>
	<polygon class="st0" points="1123,459 1152,454.1 1152,367.4 1123,377.2"/>
	<polygon class="st0" points="1123,540.7 1152,540.7 1152,454.1 1123,459"/>
	<polygon class="st0" points="1123,622.5 1152,627.4 1152,540.7 1123,540.7"/>
	<polygon class="st0" points="1123,704.3 1152,714.1 1152,627.4 1123,622.5"/>
	<polygon class="st0" points="1123,786.1 1152,800.8 1152,714.1 1123,704.3"/>
	<polygon class="st0" points="1123,867.8 1152,887.4 1152,800.8 1123,786.1"/>
	<polygon class="st0" points="1123,949.6 1152,974.1 1152,887.4 1123,867.8"/>
	<polygon class="st0" points="1123,1031.4 1152,1060.8 1152,974.1 1123,949.6"/>
	<polygon class="st0" points="1123,1113.1 1152,1147.5 1152,1060.8 1123,1031.4"/>
	<polygon class="st0" points="1152,20.7 1184.7,-12.5 1184.7,-104.7 1152,-66"/>
	<polygon class="st0" points="1152,107.4 1184.7,79.7 1184.7,-12.5 1152,20.7"/>
	<polygon class="st0" points="1152,194.1 1184.7,171.9 1184.7,79.7 1152,107.4"/>
	<polygon class="st0" points="1152,280.7 1184.7,264.1 1184.7,171.9 1152,194.1"/>
	<polygon class="st0" points="1152,367.4 1184.7,356.3 1184.7,264.1 1152,280.7"/>
	<polygon class="st0" points="1152,454.1 1184.7,448.5 1184.7,356.3 1152,367.4"/>
	<polygon class="st0" points="1152,540.7 1184.7,540.7 1184.7,448.5 1152,454.1"/>
	<polygon class="st0" points="1152,627.4 1184.7,633 1184.7,540.7 1152,540.7"/>
	<polygon class="st0" points="1152,714.1 1184.7,725.2 1184.7,633 1152,627.4"/>
	<polygon class="st0" points="1152,800.8 1184.7,817.4 1184.7,725.2 1152,714.1"/>
	<polygon class="st0" points="1152,887.4 1184.7,909.6 1184.7,817.4 1152,800.8"/>
	<polygon class="st0" points="1152,974.1 1184.7,1001.8 1184.7,909.6 1152,887.4"/>
	<polygon class="st0" points="1152,1060.8 1184.7,1094 1184.7,1001.8 1152,974.1"/>
	<polygon class="st0" points="1152,1147.5 1184.7,1186.2 1184.7,1094 1152,1060.8"/>
	<polygon class="st0" points="1184.7,79.7 1221.8,48.3 1221.8,-50.2 1184.7,-12.5"/>
	<polygon class="st0" points="1184.7,171.9 1221.8,146.8 1221.8,48.3 1184.7,79.7"/>
	<polygon class="st0" points="1184.7,264.1 1221.8,245.3 1221.8,146.8 1184.7,171.9"/>
	<polygon class="st0" points="1184.7,356.3 1221.8,343.8 1221.8,245.3 1184.7,264.1"/>
	<polygon class="st0" points="1184.7,448.5 1221.8,442.3 1221.8,343.8 1184.7,356.3"/>
	<polygon class="st0" points="1184.7,540.7 1221.8,540.7 1221.8,442.3 1184.7,448.5"/>
	<polygon class="st0" points="1184.7,633 1221.8,639.2 1221.8,540.7 1184.7,540.7"/>
	<polygon class="st0" points="1184.7,725.2 1221.8,737.7 1221.8,639.2 1184.7,633"/>
	<polygon class="st0" points="1184.7,817.4 1221.8,836.2 1221.8,737.7 1184.7,725.2"/>
	<polygon class="st0" points="1184.7,909.6 1221.8,934.7 1221.8,836.2 1184.7,817.4"/>
	<polygon class="st0" points="1184.7,1001.8 1221.8,1033.2 1221.8,934.7 1184.7,909.6"/>
	<polygon class="st0" points="1184.7,1094 1221.8,1131.7 1221.8,1033.2 1184.7,1001.8"/>
	<polygon class="st0" points="1221.8,48.3 1264.4,12.2 1264.4,-93.5 1221.8,-50.2"/>
	<polygon class="st0" points="1221.8,146.8 1264.4,117.9 1264.4,12.2 1221.8,48.3"/>
	<polygon class="st0" points="1221.8,245.3 1264.4,223.6 1264.4,117.9 1221.8,146.8"/>
	<polygon class="st0" points="1221.8,343.8 1264.4,329.3 1264.4,223.6 1221.8,245.3"/>
	<polygon class="st0" points="1221.8,442.3 1264.4,435 1264.4,329.3 1221.8,343.8"/>
	<polygon class="st0" points="1221.8,540.7 1264.4,540.7 1264.4,435 1221.8,442.3"/>
	<polygon class="st0" points="1221.8,639.2 1264.4,646.5 1264.4,540.7 1221.8,540.7"/>
	<polygon class="st0" points="1221.8,737.7 1264.4,752.2 1264.4,646.5 1221.8,639.2"/>
	<polygon class="st0" points="1221.8,836.2 1264.4,857.9 1264.4,752.2 1221.8,737.7"/>
	<polygon class="st0" points="1221.8,934.7 1264.4,963.6 1264.4,857.9 1221.8,836.2"/>
	<polygon class="st0" points="1221.8,1033.2 1264.4,1069.3 1264.4,963.6 1221.8,934.7"/>
	<polygon class="st0" points="1221.8,1131.7 1264.4,1175 1264.4,1069.3 1221.8,1033.2"/>
	<polygon class="st0" points="1264.4,12.2 1313.7,-29.5 1264.4,-93.5"/>
	<polygon class="st0" points="1264.4,117.9 1313.7,84.6 1313.7,-29.5 1264.4,12.2"/>
	<polygon class="st0" points="1264.4,223.6 1313.7,198.6 1313.7,84.6 1264.4,117.9"/>
	<polygon class="st0" points="1264.4,329.3 1313.7,312.7 1313.7,198.6 1264.4,223.6"/>
	<polygon class="st0" points="1264.4,435 1313.7,426.7 1313.7,312.7 1264.4,329.3"/>
	<polygon class="st0" points="1264.4,540.7 1313.7,540.7 1313.7,426.7 1264.4,435"/>
	<polygon class="st0" points="1264.4,646.5 1313.7,654.8 1313.7,540.7 1264.4,540.7"/>
	<polygon class="st0" points="1264.4,752.2 1313.7,768.8 1313.7,654.8 1264.4,646.5"/>
	<polygon class="st0" points="1264.4,857.9 1313.7,882.9 1313.7,768.8 1264.4,752.2"/>
	<polygon class="st0" points="1264.4,963.6 1313.7,996.9 1313.7,882.9 1264.4,857.9"/>
	<polygon class="st0" points="1264.4,1069.3 1313.7,1111 1313.7,996.9 1264.4,963.6"/>
	<polygon class="st0" points="1264.4,1175 1313.7,1111 1264.4,1069.3"/>
	<polygon class="st0" points="1313.7,84.6 1371.4,45.5 1371.4,-78.4 1313.7,-29.5"/>
	<polygon class="st0" points="1313.7,198.6 1371.4,169.3 1371.4,45.5 1313.7,84.6"/>
	<polygon class="st0" points="1313.7,312.7 1371.4,293.1 1371.4,169.3 1313.7,198.6"/>
	<polygon class="st0" points="1313.7,426.7 1371.4,416.9 1371.4,293.1 1313.7,312.7"/>
	<polygon class="st0" points="1313.7,540.7 1371.4,540.7 1371.4,416.9 1313.7,426.7"/>
	<polygon class="st0" points="1313.7,654.8 1371.4,664.6 1371.4,540.7 1313.7,540.7"/>
	<polygon class="st0" points="1313.7,768.8 1371.4,788.4 1371.4,664.6 1313.7,654.8"/>
	<polygon class="st0" points="1313.7,882.9 1371.4,912.2 1371.4,788.4 1313.7,768.8"/>
	<polygon class="st0" points="1313.7,996.9 1371.4,1036 1371.4,912.2 1313.7,882.9"/>
	<polygon class="st0" points="1313.7,1111 1371.4,1159.9 1371.4,1036 1313.7,996.9"/>
	<polygon class="st0" points="1371.4,45.5 1440,-1 1440,-136.4 1371.4,-78.4"/>
	<polygon class="st0" points="1371.4,169.3 1440,134.5 1440,-1 1371.4,45.5"/>
	<polygon class="st0" points="1371.4,293.1 1440,269.9 1440,134.5 1371.4,169.3"/>
	<polygon class="st0" points="1371.4,416.9 1440,405.3 1440,269.9 1371.4,293.1"/>
	<polygon class="st0" points="1371.4,540.7 1440,540.7 1440,405.3 1371.4,416.9"/>
	<polygon class="st0" points="1371.4,664.6 1440,676.2 1440,540.7 1371.4,540.7"/>
	<polygon class="st0" points="1371.4,788.4 1440,811.6 1440,676.2 1371.4,664.6"/>
	<polygon class="st0" points="1371.4,912.2 1440,947 1440,811.6 1371.4,788.4"/>
	<polygon class="st0" points="1371.4,1036 1440,1082.5 1440,947 1371.4,912.2"/>
	<polygon class="st0" points="1371.4,1159.9 1440,1217.9 1440,1082.5 1371.4,1036"/>
	<polygon class="st0" points="1440,-1 1522.8,-57 1440,-136.4"/>
	<polygon class="st0" points="1440,134.5 1522.8,92.4 1522.8,-57 1440,-1"/>
	<polygon class="st0" points="1440,269.9 1522.8,241.9 1522.8,92.4 1440,134.5"/>
	<polygon class="st0" points="1440,405.3 1522.8,391.3 1522.8,241.9 1440,269.9"/>
	<polygon class="st0" points="1440,540.7 1522.8,540.7 1522.8,391.3 1440,405.3"/>
	<polygon class="st0" points="1440,676.2 1522.8,690.2 1522.8,540.7 1440,540.7"/>
	<polygon class="st0" points="1440,811.6 1522.8,839.6 1522.8,690.2 1440,676.2"/>
	<polygon class="st0" points="1440,947 1522.8,989.1 1522.8,839.6 1440,811.6"/>
	<polygon class="st0" points="1440,1082.5 1522.8,1138.5 1522.8,989.1 1440,947"/>
	<polygon class="st0" points="1440,1217.9 1522.8,1138.5 1440,1082.5"/>
	<polygon class="st0" points="1522.8,92.4 1624.6,40.7 1624.6,-126 1522.8,-57"/>
	<polygon class="st0" points="1522.8,241.9 1624.6,207.4 1624.6,40.7 1522.8,92.4"/>
	<polygon class="st0" points="1522.8,391.3 1624.6,374.1 1624.6,207.4 1522.8,241.9"/>
	<polygon class="st0" points="1522.8,540.7 1624.6,540.7 1624.6,374.1 1522.8,391.3"/>
	<polygon class="st0" points="1522.8,690.2 1624.6,707.4 1624.6,540.7 1522.8,540.7"/>
	<polygon class="st0" points="1522.8,839.6 1624.6,874.1 1624.6,707.4 1522.8,690.2"/>
	<polygon class="st0" points="1522.8,989.1 1624.6,1040.8 1624.6,874.1 1522.8,839.6"/>
	<polygon class="st0" points="1522.8,1138.5 1624.6,1207.5 1624.6,1040.8 1522.8,989.1"/>
	<polygon class="st0" points="1624.6,40.7 1753,-24.5 1624.6,-126"/>
	<polygon class="st0" points="1624.6,207.4 1753,163.9 1753,-24.5 1624.6,40.7"/>
	<polygon class="st0" points="1624.6,374.1 1753,352.3 1753,163.9 1624.6,207.4"/>
	<polygon class="st0" points="1624.6,540.7 1753,540.7 1753,352.3 1624.6,374.1"/>
	<polygon class="st0" points="1624.6,707.4 1753,729.2 1753,540.7 1624.6,540.7"/>
	<polygon class="st0" points="1624.6,874.1 1753,917.6 1753,729.2 1624.6,707.4"/>
	<polygon class="st0" points="1624.6,1040.8 1753,1106 1753,917.6 1624.6,874.1"/>
	<polygon class="st0" points="1624.6,1207.5 1753,1106 1624.6,1040.8"/>
	<polygon class="st0" points="1753,163.9 1920,107.4 1920,-109.3 1753,-24.5"/>
	<polygon class="st0" points="1753,352.3 1920,324.1 1920,107.4 1753,163.9"/>
	<polygon class="st0" points="1753,540.7 1920,540.7 1920,324.1 1753,352.3"/>
	<polygon class="st0" points="1753,729.2 1920,757.4 1920,540.7 1753,540.7"/>
	<polygon class="st0" points="1753,917.6 1920,974.1 1920,757.4 1753,729.2"/>
	<polygon class="st0" points="1753,1106 1920,1190.8 1920,974.1 1753,917.6"/>
</g>
</svg>